# Blender v2.83.7 OBJ File: ''
# www.blender.org
mtllib HalfBallShield.mtl
o halfBallCol_çƒä½“.001
v 0.000000 0.500000 0.000000
v 0.000000 0.461940 0.191342
v 0.176777 0.426777 0.191342
v 0.191342 0.461940 0.000000
v 0.000000 0.353553 0.353553
v 0.000000 0.191342 0.461940
v 0.073223 0.176777 0.461940
v 0.135299 0.326641 0.353553
v 0.000000 -0.000000 0.500000
v 0.250000 0.250000 0.353553
v 0.326641 0.326641 0.191342
v 0.135299 0.135299 0.461940
v 0.353553 0.353553 0.000000
v 0.326641 0.135299 0.353553
v 0.426777 0.176777 0.191342
v 0.176777 0.073223 0.461940
v 0.461940 0.191342 0.000000
v 0.461940 -0.000000 0.191342
v 0.500000 0.000000 0.000000
v 0.191342 -0.000000 0.461940
v 0.353553 -0.000000 0.353553
v 0.176777 -0.073223 0.461940
v 0.326641 -0.135299 0.353553
v 0.426777 -0.176777 0.191342
v 0.461940 -0.191342 -0.000000
v 0.250000 -0.250000 0.353553
v 0.326641 -0.326641 0.191342
v 0.135299 -0.135299 0.461940
v 0.353553 -0.353553 -0.000000
v 0.073223 -0.176777 0.461940
v 0.176777 -0.426777 0.191342
v 0.191342 -0.461940 -0.000000
v 0.135299 -0.326641 0.353553
v 0.000000 -0.461940 0.191342
v 0.000000 -0.500000 -0.000000
v 0.000000 -0.191342 0.461940
v 0.000000 -0.353553 0.353553
v -0.135299 -0.326641 0.353553
v -0.176777 -0.426776 0.191342
v -0.073223 -0.176777 0.461940
v -0.191342 -0.461939 -0.000000
v -0.250000 -0.250000 0.353553
v -0.326641 -0.326640 0.191342
v -0.135299 -0.135299 0.461940
v -0.353553 -0.353553 -0.000000
v -0.426777 -0.176776 0.191342
v -0.461940 -0.191341 -0.000000
v -0.176777 -0.073223 0.461940
v -0.326641 -0.135299 0.353553
v -0.461940 -0.000000 0.191342
v -0.500000 0.000000 0.000000
v -0.191342 -0.000000 0.461940
v -0.353553 -0.000000 0.353553
v -0.326641 0.135299 0.353553
v -0.426776 0.176777 0.191342
v -0.176777 0.073223 0.461940
v -0.461939 0.191342 0.000000
v -0.250000 0.250000 0.353553
v -0.326640 0.326641 0.191342
v -0.135299 0.135299 0.461940
v -0.353553 0.353554 0.000000
v -0.176776 0.426777 0.191342
v -0.191341 0.461940 0.000000
v -0.073223 0.176777 0.461940
v -0.135299 0.326641 0.353553
vt 0.999950 0.979547
vt 0.747739 0.943045
vt 0.747739 0.056955
vt 0.999950 0.020452
vt 0.496832 0.839092
vt 0.247781 0.683515
vt 0.247781 0.316485
vt 0.496832 0.160909
vt 0.000050 0.500000
vt 0.747739 0.943045
vt 0.496832 0.839092
vt 0.496832 0.160908
vt 0.747739 0.056955
vt 0.247780 0.683515
vt 0.247781 0.316485
vt 0.999950 0.979548
vt 0.999950 0.020452
vt 0.747739 0.943044
vt 0.496832 0.839091
vt 0.496832 0.160908
vt 0.747739 0.056955
vt 0.247781 0.683514
vt 0.247781 0.316484
vt 0.999950 0.979548
vt 0.999950 0.020452
vt 0.999950 0.979548
vt 0.747739 0.943044
vt 0.747739 0.056955
vt 0.999950 0.020452
vt 0.496832 0.839091
vt 0.247781 0.683514
vt 0.247781 0.316483
vt 0.496832 0.160908
vt 0.496832 0.839090
vt 0.247781 0.683514
vt 0.247781 0.316483
vt 0.496832 0.160907
vt 0.747739 0.943044
vt 0.747739 0.056955
vt 0.999950 0.979548
vt 0.999950 0.020452
vt 0.747739 0.943044
vt 0.496832 0.839091
vt 0.496832 0.160907
vt 0.747739 0.056955
vt 0.247781 0.683514
vt 0.247781 0.316483
vt 0.999950 0.979548
vt 0.999950 0.020452
vt 0.247781 0.683514
vt 0.247781 0.316483
vt 0.999950 0.979548
vt 0.747739 0.943044
vt 0.747739 0.056955
vt 0.999950 0.020452
vt 0.496832 0.839091
vt 0.496832 0.160907
vt 0.999950 0.979548
vt 0.747739 0.943045
vt 0.747739 0.056955
vt 0.999950 0.020452
vt 0.496832 0.839092
vt 0.247781 0.683515
vt 0.247781 0.316485
vt 0.496832 0.160908
vt 0.747739 0.943045
vt 0.496832 0.839092
vt 0.496832 0.160908
vt 0.747739 0.056955
vt 0.247781 0.683515
vt 0.247781 0.316485
vt 0.999950 0.979548
vt 0.999950 0.020452
vt 0.747739 0.943045
vt 0.496832 0.839091
vt 0.496832 0.160908
vt 0.747739 0.056955
vt 0.247781 0.683514
vt 0.247781 0.316484
vt 0.999950 0.979548
vt 0.999950 0.020452
vt 0.999950 0.979548
vt 0.747739 0.943045
vt 0.747739 0.056955
vt 0.999950 0.020452
vt 0.496832 0.839091
vt 0.247781 0.683515
vt 0.247781 0.316484
vt 0.496832 0.160908
vt 0.999950 0.979548
vt 0.747739 0.943045
vt 0.747739 0.056955
vt 0.999950 0.020452
vt 0.496832 0.839092
vt 0.247781 0.683515
vt 0.247781 0.316485
vt 0.496832 0.160908
vt 0.747739 0.943045
vt 0.496832 0.839091
vt 0.496832 0.160908
vt 0.747739 0.056955
vt 0.247781 0.683515
vt 0.247781 0.316484
vt 0.999950 0.979548
vt 0.999950 0.020452
vt 0.747739 0.943045
vt 0.496832 0.839091
vt 0.496832 0.160908
vt 0.747739 0.056955
vt 0.247781 0.683516
vt 0.247781 0.316485
vt 0.999950 0.979548
vt 0.999950 0.020452
vt 0.999950 0.979548
vt 0.747739 0.943045
vt 0.747739 0.056956
vt 0.999950 0.020452
vt 0.496832 0.839092
vt 0.247781 0.683516
vt 0.247781 0.316485
vt 0.496832 0.160909
vt 0.496832 0.839092
vt 0.247781 0.683516
vt 0.247781 0.316486
vt 0.496832 0.160909
vt 0.747739 0.943045
vt 0.747739 0.056956
vt 0.999950 0.979548
vt 0.999950 0.020452
vn 0.1915 0.9626 0.1915
vn 0.1098 0.5522 0.8264
vn 0.1632 0.8203 0.5481
vn 0.0388 0.1949 0.9800
vn 0.4647 0.6954 0.5481
vn 0.1104 0.1653 0.9800
vn 0.5453 0.8161 0.1915
vn 0.3128 0.4681 0.8264
vn 0.6954 0.4647 0.5481
vn 0.1653 0.1104 0.9800
vn 0.8161 0.5453 0.1915
vn 0.4681 0.3128 0.8264
vn 0.9626 0.1915 0.1915
vn 0.5522 0.1098 0.8264
vn 0.8203 0.1632 0.5481
vn 0.1949 0.0388 0.9800
vn 0.5522 -0.1098 0.8264
vn 0.8203 -0.1632 0.5481
vn 0.1949 -0.0388 0.9800
vn 0.9626 -0.1915 0.1915
vn 0.6954 -0.4647 0.5481
vn 0.1653 -0.1104 0.9800
vn 0.8161 -0.5453 0.1915
vn 0.4681 -0.3128 0.8264
vn 0.1104 -0.1653 0.9800
vn 0.5453 -0.8161 0.1915
vn 0.3128 -0.4681 0.8264
vn 0.4647 -0.6954 0.5481
vn 0.1915 -0.9626 0.1915
vn 0.1098 -0.5522 0.8264
vn 0.1632 -0.8203 0.5481
vn 0.0388 -0.1949 0.9800
vn -0.1632 -0.8203 0.5481
vn -0.0388 -0.1949 0.9800
vn -0.1915 -0.9626 0.1915
vn -0.1098 -0.5522 0.8264
vn -0.4647 -0.6954 0.5481
vn -0.1104 -0.1653 0.9800
vn -0.5453 -0.8161 0.1915
vn -0.3128 -0.4681 0.8264
vn -0.8161 -0.5453 0.1915
vn -0.4681 -0.3128 0.8264
vn -0.6954 -0.4647 0.5481
vn -0.1653 -0.1104 0.9800
vn -0.9626 -0.1915 0.1915
vn -0.5522 -0.1098 0.8264
vn -0.8203 -0.1632 0.5481
vn -0.1949 -0.0388 0.9800
vn -0.8203 0.1632 0.5481
vn -0.1949 0.0388 0.9800
vn -0.9626 0.1915 0.1915
vn -0.5522 0.1098 0.8264
vn -0.6954 0.4647 0.5481
vn -0.1653 0.1104 0.9800
vn -0.8161 0.5453 0.1915
vn -0.4681 0.3128 0.8264
vn -0.5453 0.8161 0.1915
vn -0.3128 0.4681 0.8264
vn -0.4647 0.6954 0.5481
vn -0.1104 0.1653 0.9800
vn -0.1098 0.5522 0.8264
vn -0.1632 0.8203 0.5481
vn -0.0388 0.1949 0.9800
vn -0.1915 0.9626 0.1915
usemtl None.003
s 1
f 1/1/1 2/2/1 3/3/1 4/4/1
f 5/5/2 6/6/2 7/7/2 8/8/2
f 2/2/3 5/5/3 8/8/3 3/3/3
f 6/6/4 9/9/4 7/7/4
f 3/10/5 8/11/5 10/12/5 11/13/5
f 7/14/6 9/9/6 12/15/6
f 4/16/7 3/10/7 11/13/7 13/17/7
f 8/11/8 7/14/8 12/15/8 10/12/8
f 11/18/9 10/19/9 14/20/9 15/21/9
f 12/22/10 9/9/10 16/23/10
f 13/24/11 11/18/11 15/21/11 17/25/11
f 10/19/12 12/22/12 16/23/12 14/20/12
f 17/26/13 15/27/13 18/28/13 19/29/13
f 14/30/14 16/31/14 20/32/14 21/33/14
f 15/27/15 14/30/15 21/33/15 18/28/15
f 16/31/16 9/9/16 20/32/16
f 21/34/17 20/35/17 22/36/17 23/37/17
f 18/38/18 21/34/18 23/37/18 24/39/18
f 20/35/19 9/9/19 22/36/19
f 19/40/20 18/38/20 24/39/20 25/41/20
f 24/42/21 23/43/21 26/44/21 27/45/21
f 22/46/22 9/9/22 28/47/22
f 25/48/23 24/42/23 27/45/23 29/49/23
f 23/43/24 22/46/24 28/47/24 26/44/24
f 28/50/25 9/9/25 30/51/25
f 29/52/26 27/53/26 31/54/26 32/55/26
f 26/56/27 28/50/27 30/51/27 33/57/27
f 27/53/28 26/56/28 33/57/28 31/54/28
f 32/58/29 31/59/29 34/60/29 35/61/29
f 33/62/30 30/63/30 36/64/30 37/65/30
f 31/59/31 33/62/31 37/65/31 34/60/31
f 30/63/32 9/9/32 36/64/32
f 34/66/33 37/67/33 38/68/33 39/69/33
f 36/70/34 9/9/34 40/71/34
f 35/72/35 34/66/35 39/69/35 41/73/35
f 37/67/36 36/70/36 40/71/36 38/68/36
f 39/74/37 38/75/37 42/76/37 43/77/37
f 40/78/38 9/9/38 44/79/38
f 41/80/39 39/74/39 43/77/39 45/81/39
f 38/75/40 40/78/40 44/79/40 42/76/40
f 45/82/41 43/83/41 46/84/41 47/85/41
f 42/86/42 44/87/42 48/88/42 49/89/42
f 43/83/43 42/86/43 49/89/43 46/84/43
f 44/87/44 9/9/44 48/88/44
f 47/90/45 46/91/45 50/92/45 51/93/45
f 49/94/46 48/95/46 52/96/46 53/97/46
f 46/91/47 49/94/47 53/97/47 50/92/47
f 48/95/48 9/9/48 52/96/48
f 50/98/49 53/99/49 54/100/49 55/101/49
f 52/102/50 9/9/50 56/103/50
f 51/104/51 50/98/51 55/101/51 57/105/51
f 53/99/52 52/102/52 56/103/52 54/100/52
f 55/106/53 54/107/53 58/108/53 59/109/53
f 56/110/54 9/9/54 60/111/54
f 57/112/55 55/106/55 59/109/55 61/113/55
f 54/107/56 56/110/56 60/111/56 58/108/56
f 61/114/57 59/115/57 62/116/57 63/117/57
f 58/118/58 60/119/58 64/120/58 65/121/58
f 59/115/59 58/118/59 65/121/59 62/116/59
f 60/119/60 9/9/60 64/120/60
f 65/122/61 64/123/61 6/124/61 5/125/61
f 62/126/62 65/122/62 5/125/62 2/127/62
f 64/123/63 9/9/63 6/124/63
f 63/128/64 62/126/64 2/127/64 1/129/64
